<?xml version="1.0" encoding="UTF-8" standalone="no"?>
<svg
   width="582mm"
   height="587mm"
   version="1.1"
   viewBox="0 0 582 587"
   id="svg20"
   sodipodi:docname="new-blk-logo-ink.svg"
   inkscape:version="1.1.2 (0a00cf5339, 2022-02-04)"
   xmlns:inkscape="http://www.inkscape.org/namespaces/inkscape"
   xmlns:sodipodi="http://sodipodi.sourceforge.net/DTD/sodipodi-0.dtd"
   xmlns="http://www.w3.org/2000/svg"
   xmlns:svg="http://www.w3.org/2000/svg">
  <defs
     id="defs24" />
  <sodipodi:namedview
     id="namedview22"
     pagecolor="#ffffff"
     bordercolor="#666666"
     borderopacity="1.0"
     inkscape:pageshadow="2"
     inkscape:pageopacity="0.0"
     inkscape:pagecheckerboard="0"
     inkscape:document-units="mm"
     showgrid="false"
     inkscape:zoom="0.51377672"
     inkscape:cx="944.96302"
     inkscape:cy="870.02774"
     inkscape:window-width="1918"
     inkscape:window-height="2110"
     inkscape:window-x="0"
     inkscape:window-y="25"
     inkscape:window-maximized="0"
     inkscape:current-layer="g18" />
  <g
     transform="translate(320 62)"
     id="g18">
    <path
       d="m-29-58c-160-2e-5 -290 130-290 290-8e-5 160 130 290 290 290 160 1e-5 290-130 290-290 8e-5 -160-130-290-290-290zm-0.4 21c145 0 263 119 263 267 0 147-118 267-263 267-145 0-263-119-263-267 0-147 118-267 263-267z"
       fill="#e6c866"
       stroke="#deb354"
       stroke-width=".3"
       id="path2" />
    <ellipse
       cx="-28"
       cy="231"
       rx="272"
       ry="274"
       fill="#1a1a1a"
       stroke="#deb354"
       stroke-width=".3"
       id="ellipse4" />
    <path
       transform="matrix(-.8 -.5 .5 -.9 0 0)"
       d="m-103 47a252 251 0 0 1-218-125 252 251 0 0 1 0-251 252 251 0 0 1 218-125v251z"
       fill="#3d383d"
       fill-opacity=".3"
       stroke-width="326"
       style="mix-blend-mode:color-dodge"
       id="path6" />
    <path
       d="m -148,72 v 4 c 0,0 33,9 33,58 v 149 c 0,58 -33,62 -33,62 v 5 l 54,-3 V 74 Z m 118,0.7 c -13,0.006 -24,2 -44,2 v 272 c 0,0 44,3 68,3 24,-0.2 60,-16 67,-60 7,-44 -11,-64 -20,-72 -9,-7 -34,-16 -34,-16 0,-10e-6 17,-8 24,-20 8,-12 14,-34 8,-58 -6,-23 -26,-47 -50,-50 -6,-0.8 -11,-1 -16,-1 -0.9,-0.02 -2,-0.03 -3,-0.03 z m 59,7 c 0,0 30,20 31,59 0.7,40 -15,55 -15,55 0,0 39,-13 39,-58 -0.7,-45 -54,-57 -54,-57 z m -31,22 c 21,15 26,57 9,80 -17,23 -61,17 -61,17 0,0 -0.2,-95 4,-99 14.611539,-8.692648 33.093255,-8.826768 48,2 z m 58,107 c -3e-6,0 24,21 25,65 1,45 -25,67 -25,67 -3e-6,0 50,-14 49,-67 -0.6,-53 -49,-65 -49,-65 z m -102,7 c 14,-0.2 44,0.09 56,5 v 0.008 c 16,7 37,31 27,70 -10,39 -41,40 -57,39 -16,-0.6 -31,-0.4 -33,-45 -2,-45 -1,-69 -1,-69 0,0 3,-0.1 8,-0.2 z"
       fill="#d7a93c"
       stroke="#deb354"
       stroke-width="0.4"
       id="path8"
       sodipodi:nodetypes="ccsscccccccccscccccccccccccccscccccccccccsccccc" />
    <path
       d="m-28-41c-151-2e-5 -274 123-274 274-8e-5 151 123 274 274 274 151 2e-5 274-123 274-274 8e-5 -151-123-274-274-274zm-0.4 20c137 0 249 113 249 252 0 139-111 252-249 252-137 0-249-113-249-252 0-139 111-252 249-252z"
       stroke="#deb354"
       stroke-opacity=".05"
       stroke-width=".3"
       id="path10" />
    <path
       transform="matrix(.9 .5 -.5 .9 0 0)"
       d="m93 458a255 251 0 0 1-221-125 255 251 0 0 1 0-251 255 251 0 0 1 221-125v251z"
       fill="#78a2bd"
       fill-opacity=".06"
       stroke-width="326"
       style="mix-blend-mode:luminosity"
       id="path14" />
    <path
       d="m-26-23c-141-2e-5 -256 115-256 256-8e-5 142 115 256 256 256 141 1e-5 256-115 256-256 7e-5 -142-115-256-256-256zm-0.4 19c128 0 233 106 233 236 0 130-104 236-233 236-128 0-233-106-233-236 0-130 104-236 233-236z"
       fill="#252224"
       style="mix-blend-mode:normal;fill:#262524;fill-opacity:1"
       id="path16" />
    <text
       xml:space="preserve"
       style="font-style:normal;font-weight:normal;font-size:42.3333px;line-height:1.25;font-family:sans-serif;fill:#d7a93c;fill-opacity:1;stroke:none;stroke-width:0.264583"
       x="-155.06726"
       y="410.41968"
       id="text5762"><tspan
         sodipodi:role="line"
         id="tspan5760"
         style="font-style:normal;font-variant:normal;font-weight:normal;font-stretch:normal;font-size:42.3333px;font-family:cmr10;-inkscape-font-specification:cmr10;fill:#d7a93c;fill-opacity:1;stroke-width:0.264583"
         x="-155.06726"
         y="410.41968">BLACKCOIN</tspan></text>
  </g>
</svg>
