<svg enable-background="new 0 0 512 512" version="1.1" viewBox="0 0 512 512" xml:space="preserve" xmlns="http://www.w3.org/2000/svg">
<path d="m509 190-145-128c-2-2-4-2-6-2h-51v-51c0-5-4-9-9-9h-290c-5 0-9 4-9 9v427c0 5 4 9 9 9h119v60c0 5 4 9 9 9h367c5 0 9-4 9-9v-307c1e-3 -2-1-5-3-6zm-142-103 114 101h-114v-101zm-239-19v358h-111v-410h273v43h-153c-5-0.5-9 4-9 9zm367 427h-350v-418h205v119c0 2 0.9 4 2 6 2 2 4 2 6 2h137v290z"/>
<g fill="#ddd">
	<polygon points="481 188 367 188 367 87"/>
	<rect x="452" y="205" width="43" height="290"/>
</g>
<path d="m452 205v290h-307v-418h205v119c0 2 0.9 4 2 6 2 2 4 2 6 2h94z" fill="#ddd"/>
<path d="m290 17v43h-153c-5-0.5-9 4-9 9v358h-111v-410h273z" fill="#ca6"/>
</svg>
