<svg width="29mm" height="29mm" version="1.1" viewBox="0 0 29 29" xmlns="http://www.w3.org/2000/svg">
 <g transform="translate(-171 -184)">
  <rect x="171" y="184" width="29" height="29" fill="#1a1a1a" stroke-width="86"/>
  <path d="m171 213c-0.18-2.9-8e-3 -5.9 0.013-8.8h9v9c-2.8 0.012-5.6 0.18-8.5 0.019-0.18-0.055-0.47-0.024-0.58-0.22zm8.4-4.2-3.9e-4 -3.9c-2.5 7e-3 -5-0.18-7.6 0.064-0.77 0.93-0.2 2.7-0.38 4 0.22 1.2-0.44 3.1 0.48 3.8 2.5 0.16 5 2e-3 7.4-0.026-1.5e-4 -1.3-2.4e-4 -2.6-4.2e-4 -3.9zm-4 3c-1-0.025-2-0.049-3.1-0.074 0.068-2 0.04-4 0.24-5.9 1.5-0.39 3-0.13 4.5-0.14 0.45 0.07 1.1-0.082 1.5 0.12 0.039 2 0.29 4.1-0.099 6.1-1-0.025-2-0.049-3.1-0.074zm2.7-3.1v-2.5h-5v5h5v-2.5zm4.4 4.3c-0.69-1.3 0.76-1.6 1.4-2.1 0.45-1.3-0.21-2-1.4-1.9-0.012-0.49-0.2-1.6 0.2-1.9 1.1-0.05 2.1-0.1 3.2-0.15v4.2c0.93 0.053 1.9 0.11 2.8 0.16v1.9c-1.9 0.012-3.8 0.19-5.7 0.016-0.15-0.034-0.35-0.088-0.41-0.25zm5.7-0.78c-0.14-0.87-1.5-0.26-2.2-0.36-0.73 0.28-0.48-0.51-0.54-0.96-0.04-1.1-0.08-2.2-0.12-3.4-0.72 0.1-1.5-0.044-2.2 0.37-0.24 1.1 1.8 0.18 1.4 1.6 0.074 1.1 0.28 2.6-1.3 2.4-0.79 1.4 2 0.76 2.8 0.86 0.63-0.13 1.8 0.18 2.1-0.55zm5.7 0.77c-0.72-1.8 1.4-1.7 2.5-1.7 0.72-0.024 1.4-0.047 2.2-0.071v2.1c-1.5-0.054-3 0.15-4.5-0.2l-0.12-0.081-0.065-0.098zm4.1-0.61c-0.77-0.72-3-0.93-3.6-3.7e-4 0.85 0.65 2.7 0.67 3.6 0.14zm-7.2-0.54c-1.6 0.5-2.1-2.5-0.18-1.9 0.79-6e-3 1.6-2e-3 2.4-3e-3 7e-3 0.79 0.18 2.1-1 1.9-0.39 0.01-0.78-0.015-1.2-0.039zm1.6-0.91c-0.45-0.66-3.2-0.6-1.9 0.28 0.55-0.024 1.6 0.29 1.9-0.28zm3.3-0.4c-0.38-0.74-0.46-1.6-1.6-1.6-0.29-0.44-0.52-1.6-0.21-1.9 1.3-0.1 2.6 0.043 3.9-0.31 0.11-1.1 1.2-1.1 2.1-1 0.61-0.09 0.16 0.85 0.27 1.2-0.038 1.1-0.075 2.3-0.11 3.4-0.86 3e-3 -2.1 0.19-2.1-1-0.82-0.21-0.73 1.8-2 1.3l-0.26-0.057zm1-1.2c0.055-1.1 2.5-1.3 2 0.21 0.92 1.2 0.96-1.5 0.9-2.1 0.33-1.5-1.1-1.1-1.2-0.019-1.3 0.52-3.1-0.15-4.1 0.81 0.94 0.31 1.7 0.64 1.8 1.7 0.37 0.2 0.6-0.29 0.56-0.58zm-9.9-0.33c-0.47-1 0.41-3-1.3-2.9-0.33-1.1-0.11-2.2-0.17-3.3 0.7 0.047 2-0.27 1.9 0.83-0.081 1.1 1.5 0.28 0.99-0.6 0.28-0.47 1.6-0.58 1.9-0.26-0.058 1.1 0.15 2.3-0.17 3.4-1.6-0.15-1 1.7-1.4 2.7-0.41 0.39-1.2 0.33-1.7 0.15zm1.4-2c-0.29-1 0.38-1.3 1.2-1.5 0.51-0.71-0.25-3.3-0.68-1.5-0.14 1.3-2.5 0.82-2.2-0.53-1.1-0.56-0.85 2.6 0.48 2.3 0.43 0.68-0.25 3.1 1.1 2.5 0.17-0.4 0.13-0.86 0.15-1.3zm-5.8-2.5c-0.52-1.4 1.1-2.6 2-1.4 0.17 1 0.065 2.1 0.094 3.1h-2.1v-1.7zm1.4 0.97c0.26-0.58 0.082-3-0.72-1.7-0.18 0.53-0.23 2.5 0.72 1.7zm8.7-0.33c0.061-0.46-0.25-1.3 0.5-1.1 0.77-0.053 1.6 0.15 2.3-0.18-0.36-1.7 2.6-1.5 2 0.17 0.49 1.6-0.67 2.5-2.2 2.1-0.88-7.6e-4 -1.8-1.5e-4 -2.6-3.5e-4v-1.1zm4.2-0.5c0.31-0.86-1-1.8-0.81-0.43-0.23 1.1-3 0.048-2.8 1.2 1.1 0.45 2.4 0.24 3.6 0.29v-1zm-4.1-1.3c-0.23-1.1-0.11-2.3-0.14-3.5 0.64 0.1 1.9-0.35 1.9 0.63 0.17 1.3 0.33 3.3-1.6 2.9l-0.12-0.041zm1.2-1.8c0.22-0.77-0.57-1.6-0.68-0.41-0.49 0.72 0.33 2.5 0.66 0.99l0.016-0.26zm-21 0.72c0.11-0.97-0.58-1.9-1.5-1.8-0.73-1.8 1-2.3 2.5-2 0.79 0.054 1.6 0.11 2.4 0.17v4.5c-1.1 0.052-2.2 0.11-3.3 0.16v-1.1zm2.7-1.4v-1.9c-1.1 0.081-2.3-0.077-3.4 0.28-0.19 0.83 1.8 0.24 1.2 1.6-0.36 1.3 0.57 2.1 1.8 1.8 0.6 0.088 0.18-0.85 0.31-1.2v-0.63zm1.6 1c0.017-1.6-0.25-3.2 0.095-4.7 0.88-0.042 1.4-0.46 1.4-1.4 1 0.068 1.2-0.58 1.4-1.3 0.53-0.045 1.7-0.31 2 0.057-0.06 1.1 0.16 2.2-0.17 3.2-0.92-0.025-1.2 0.49-1.3 1.3-1.4-0.2-1.6 0.85-1.4 2-0.059 0.45 0.25 1.3-0.5 1-0.46-8e-3 -0.93 0.028-1.4-0.066zm1.3-1.6c-0.22-0.97 0.02-2 1.2-1.9-0.036-0.96 0.54-1.3 1.4-1.4 0.47-0.54 0.47-2.9-0.44-1.8 0.19 1.4-2 0.75-1.6 2.3-1.9-0.013-1.2 2.1-1.2 3.4 0.2 1.2 0.91-0.043 0.7-0.59zm1.5 1.3c-0.67-1.6 0.97-1.8 2.1-1.7 0.37 0.11 1.3-0.34 1.2 0.19v1.9c-1.1-0.049-2.2 0.14-3.2-0.2l-0.16-0.17zm2.8-0.72c-0.23-1.2-3.3-0.19-1.6 0.53 0.49-0.067 1.5 0.2 1.6-0.53zm4.4 0.72c-0.68-1.6 1-1.8 2.2-1.7 0.39 0.1 1.3-0.32 1.3 0.19-0.06 0.63-0.12 1.3-0.18 1.9-1-0.049-2.1 0.14-3.1-0.21l-0.15-0.17zm2.8-0.66c-0.39-1.4-3.5 0.091-1.4 0.48 0.42-2e-3 1.3 0.069 1.4-0.48zm7.2-0.013c-0.54-1.6 1.8-0.58 1.3-2.1 0.41-1.5-2-0.82-1.4-2.5-0.25-0.74 0.37-0.62 0.9-0.6h2.5v6.1c-1.1 0.052-2.2 0.11-3.3 0.16-3e-5 -0.36 6e-5 -0.71-5e-5 -1.1zm2.8-2.1v-2.5c-0.69 0.034-1.4-0.16-2.1 0.11-0.43 1.1 1.7 0.52 1.2 1.9 0.12 1.1 0.1 2.3-1.3 2.3-0.22 1.1 1.3 0.76 2 0.73 0.44-0.1 0.082-0.93 0.2-1.3v-1.2zm-14 0.15c0.21-1.3-1-1.3-2-1.3-0.58 0.046-1-0.015-0.83-0.71 0.12-0.37-0.27-1.2 0.25-1.2 1.4-0.02 2.8-0.33 4.1-0.041 0.58 0.81 0.77 3.2-0.52 3.4-0.31 0.023-0.72 0.073-0.97-0.17zm1.3-1.6c-0.12-0.38 0.3-1.3-0.33-1.2-1.1 0.068-2.2-0.12-3.2 0.22-0.18 1.7 3.1-0.13 2.8 1.8 0.48 1.1 0.91-0.32 0.77-0.8zm2.9 0.96c-0.47-2 2.8-0.37 2.9-1.9-0.022-1.4 2.8-0.81 1.9 0.62-9e-3 0.67-4e-3 1.3-5e-3 2-1.6 0.057-3.2 0.11-4.7 0.17-0.034-0.3-0.069-0.59-0.1-0.89zm4.3-0.96c0.24-0.85-0.8-1.8-0.85-0.46-0.058 1.4-2.5 0.37-2.8 1.5 1.2 0.31 2.4 0.13 3.6 0.18v-1.2zm-23-1.2c-0.45-1.2 0.03-2.4 1.4-1.9 1.1 0.18 3.5-0.68 3.5 0.99-0.12 1.7-2.3 0.84-3.4 1-0.5-0.024-1-2e-3 -1.5-0.1zm4.1-0.95c-0.83-0.61-2.9-0.64-3.6 0.084 0.89 0.42 2.9 0.57 3.6-0.084zm10-1.5c-0.47-1.5 1.8-0.66 1.3-2.2 0.09-1.3-0.23-3 1.3-3.5 0.36-1.7 2.9-0.89 2.2 0.82 0.35 1.2-0.23 2-1.4 1.7v4.2h-3.5v-1.1zm2.7 0.2c0.44-1.2-0.53-3.5 0.9-3.9 1.3 0.3 0.36-3.2-0.17-1.9 0.14 1.3-2 0.59-1.5 2.1-0.24 1.1 0.61 3.4-1.2 3.3-0.68 0.87 1.8 0.9 2 0.36zm-17-0.64c-0.3-3-0.14-6.1-0.18-9.1 3.1 0.048 6.1 0.096 9.2 0.14 0.048 3 0.097 6.1 0.15 9.1-3-0.041-6.1 0.12-9.1-0.18zm8.3-4.5v-3.8h-7.7v7.7h7.7v-3.8zm-6.7 3c-0.77-0.99-0.3-2.4-0.39-3.6 0.022-0.86 0.045-1.7 0.067-2.6 2-0.05 4-0.1 6-0.15 0.74 1.7 0.49 3.7 0.4 5.5-0.11 1.6-2.4 0.88-3.5 1.1-0.84-0.045-1.7 0.01-2.5-0.31zm5.4-3v-2.5h-5v5h5v-2.5zm13 4.3c-0.18-2.9-8e-3 -5.9 0.013-8.8h9v9c-2.8 0.012-5.6 0.18-8.5 0.019-0.18-0.055-0.47-0.024-0.58-0.22zm5.4-0.44c1.1-7e-3 2.2-0.014 3.3-0.022-0.084-2.6-0.14-5.2-0.26-7.9-2.5-0.082-5.1-0.036-7.6 0.11-0.38 1.6-0.16 3.3-0.19 5 0.2 1.2-0.66 3.6 1.3 2.9 1.1-0.031 2.3-0.044 3.4-0.052zm-2.9-0.77c-1.7 9e-3 -0.79-2.2-1-3.2 0.19-1.1-0.6-3.3 1.3-2.9 1.6-0.059 3.2-0.01 4.8 6e-3 0.055 2 0.11 4.1 0.16 6.1-1.7 0.02-3.5 0.17-5.2 0.049zm4.6-3.1v-2.5h-5v5h5v-2.5zm-16 3.1c-0.21-2.6-0.095-5.1-0.12-7.7 1.6 0.04 3.2-0.1 4.8 0.13 0.28 0.9-0.042 2.5-1.5 2-0.37 0.13-1.3-0.28-1.2 0.25v5.3c-0.66 0.05-1.3 0.24-2 0.094zm1.4-3.4c0.062-1.2-0.54-3.4 1.4-2.9 0.91 0.23 1.8-0.67 0.42-0.64-1.3-0.16-3.2-0.32-2.7 1.6-6e-3 1.5-0.14 3.1 0.11 4.6 1.3 1 0.7-2.1 0.82-2.6z" fill="#fff" stroke-width="86"/>
 </g>
</svg>
